<svg width="24" height="24" viewBox="0 0 24 24" fill="none" xmlns="http://www.w3.org/2000/svg">
  <circle cx="12" cy="10" r="6" stroke="#A8D8A8" stroke-width="2" fill="#F0F8F0"/>
  <path d="M9 8c0.5-0.5 1.5-0.5 2 0s0.5 1.5 0 2M13 12c0.5-0.5 1.5-0.5 2 0s0.5 1.5 0 2" stroke="#A8D8A8" stroke-width="1.5" stroke-linecap="round"/>
  <path d="M8 16c1 1 2 2 4 2s3-1 4-2" stroke="#A8D8A8" stroke-width="2" stroke-linecap="round"/>
  <path d="M6 18c0.5 0.5 1.5 1 3 1.5M18 18c-0.5 0.5-1.5 1-3 1.5" stroke="#A8D8A8" stroke-width="1.5" stroke-linecap="round"/>
  <circle cx="10" cy="7" r="1" fill="#A8D8A8"/>
  <circle cx="14" cy="7" r="1" fill="#A8D8A8"/>
</svg>